<svg xmlns="http://www.w3.org/2000/svg" viewBox="0 0 375 100">
<g id="Layer_2" data-name="Layer 2">
  <g id="INIT">
    <g id="NAV">
      <rect width="375" height="100" />
      <g>
        <g id="EGG-NAV">
          <path
            d="M204.57,55.79a15.24,15.24,0,1,1-30.48,0c0-8.42,6.82-26.82,15.24-26.82S204.57,47.37,204.57,55.79Z"
            fill="none"
            stroke="#fff"
            strokeMiterlimit="10"
            strokeWidth="4"
          />
          <rect
            x="152.58"
            y="18.35"
            width="74.27"
            height="69.22"
            fill="#ea5757"
            stroke="#fff"
            strokeMiterlimit="10"
            strokeWidth="2"
            opacity="0"
          />
        </g>
        <g id="WORLD">
          <circle
            cx="325.79"
            cy="50"
            r="21.22"
            fill="none"
            stroke="#fff"
            strokeMiterlimit="10"
            strokeWidth="4"
          />
          <path
            d="M316.36,32.15s13.48,4.38,10.45,11.79S313,52.36,313,59.09s12.8,12.13,12.8,12.13"
            fill="none"
            stroke="#fff"
            strokeMiterlimit="10"
            strokeWidth="4"
          />
          <rect
            x="286.98"
            y="18.35"
            width="74.27"
            height="69.22"
            fill="#ea5757"
            stroke="#fff"
            strokeMiterlimit="10"
            strokeWidth="2"
            opacity="0"
          />
        </g>
        <g id="COLLECTION">
          <polygon
            points="62.56 30.04 39.51 30.04 27.98 50 39.51 69.96 62.56 69.96 74.08 50 62.56 30.04"
            fill="none"
            stroke="#fff"
            strokeMiterlimit="10"
            strokeWidth="4"
          />
          <rect
            x="14.14"
            y="16.33"
            width="74.27"
            height="69.22"
            fill="#ea5757"
            stroke="#fff"
            strokeMiterlimit="10"
            strokeWidth="2"
            opacity="0"
          />
        </g>
      </g>
    </g>
  </g>
</g>
</svg>