{
  "asset": { "version": "2.0", "generator": "THREE.GLTFExporter" },
  "scenes": [{ "nodes": [0, 1, 3] }],
  "scene": 0,
  "nodes": [
    {},
    {
      "matrix": [1, 0, 0, 0, 0, 1, 0, 0, 0, 0, 1, 0, 10, 10, 10, 1],
      "extensions": { "KHR_lights_punctual": { "light": 0 } }
    },
    {
      "matrix": [
        1,
        0,
        0,
        0,
        0,
        -1.3435885648505064e-7,
        0.9999999657714511,
        0,
        0,
        -0.9999999657714511,
        -1.3435885648505064e-7,
        0,
        0,
        0,
        0,
        1
      ],
      "name": "EGG",
      "extras": { "name": "EGG" },
      "mesh": 0
    },
    { "name": "Scene", "children": [2] }
  ],
  "extensions": {
    "KHR_lights_punctual": {
      "lights": [
        { "color": [1, 1, 1], "intensity": 0.5, "type": "directional" }
      ]
    }
  },
  "bufferViews": [
    {
      "buffer": 0,
      "byteOffset": 0,
      "byteLength": 5124,
      "target": 34962,
      "byteStride": 12
    },
    {
      "buffer": 0,
      "byteOffset": 5124,
      "byteLength": 5124,
      "target": 34962,
      "byteStride": 12
    },
    {
      "buffer": 0,
      "byteOffset": 10248,
      "byteLength": 3416,
      "target": 34962,
      "byteStride": 8
    },
    { "buffer": 0, "byteOffset": 13664, "byteLength": 4224, "target": 34963 }
  ],
  "buffers": [
    {
      "byteLength": 17888,
      "uri": "data:application/octet-stream;base64,"
    }
  ],
  "accessors": [
    {
      "bufferView": 0,
      "componentType": 5126,
      "count": 427,
      "max": [0.9953547120094299, 0.9953543543815613, 1.0001716613769531],
      "min": [-0.9953543543815613, -0.9953552484512329, -1.3115565776824951],
      "type": "VEC3"
    },
    {
      "bufferView": 1,
      "componentType": 5126,
      "count": 427,
      "max": [0.9999156594276428, 0.9999156594276428, 1],
      "min": [-0.9999157190322876, -0.999915599822998, -1],
      "type": "VEC3"
    },
    {
      "bufferView": 2,
      "componentType": 5126,
      "count": 427,
      "max": [1, 1],
      "min": [0, 0],
      "type": "VEC2"
    },
    {
      "bufferView": 3,
      "componentType": 5123,
      "count": 2112,
      "max": [426],
      "min": [0],
      "type": "SCALAR"
    }
  ],
  "materials": [
    {
      "pbrMetallicRoughness": {
        "metallicFactor": 0,
        "roughnessFactor": 0.2514285743236542,
        "baseColorTexture": {
          "index": 0,
          "extensions": { "KHR_texture_transform": { "scale": [10, 10] } }
        }
      },
      "emissiveFactor": [
        0.14484760165214539,
        0.14484760165214539,
        0.14484760165214539
      ],
      "doubleSided": true,
      "name": "Material"
    }
  ],
  "textures": [{ "sampler": 0, "source": 0 }],
  "samplers": [
    { "magFilter": 9729, "minFilter": 9987, "wrapS": 10497, "wrapT": 10497 }
  ],
  "images": [
    {
      "mimeType": "image/png",
      "uri": "data:image/png;base64,"
    }
  ],
  "meshes": [
    {
      "primitives": [
        {
          "mode": 4,
          "attributes": { "POSITION": 0, "NORMAL": 1, "TEXCOORD_0": 2 },
          "indices": 3,
          "material": 0
        }
      ]
    }
  ],
  "extensionsUsed": ["KHR_lights_punctual", "KHR_texture_transform"]
}
