{
    "asset" : {
        "generator" : "Khronos glTF Blender I/O v1.4.40",
        "version" : "2.0"
    },
    "scene" : 0,
    "scenes" : [
        {
            "name" : "Scene",
            "nodes" : [
                0
            ]
        }
    ],
    "nodes" : [
        {
            "mesh" : 0,
            "name" : "EGG",
            "rotation" : [
                0.7071068286895752,
                0,
                0,
                0.7071067094802856
            ]
        }
    ],
    "materials" : [
        {
            "doubleSided" : true,
            "name" : "Material",
            "pbrMetallicRoughness" : {
                "metallicFactor" : 0,
                "roughnessFactor" : 0.5171430110931396
            }
        }
    ],
    "meshes" : [
        {
            "name" : "EGG",
            "primitives" : [
                {
                    "attributes" : {
                        "POSITION" : 0,
                        "NORMAL" : 1,
                        "TEXCOORD_0" : 2
                    },
                    "indices" : 3,
                    "material" : 0
                }
            ]
        }
    ],
    "accessors" : [
        {
            "bufferView" : 0,
            "componentType" : 5126,
            "count" : 427,
            "max" : [
                0.9953547120094299,
                0.9953543543815613,
                1.0001716613769531
            ],
            "min" : [
                -0.9953543543815613,
                -0.9953552484512329,
                -1.3115565776824951
            ],
            "type" : "VEC3"
        },
        {
            "bufferView" : 1,
            "componentType" : 5126,
            "count" : 427,
            "type" : "VEC3"
        },
        {
            "bufferView" : 2,
            "componentType" : 5126,
            "count" : 427,
            "type" : "VEC2"
        },
        {
            "bufferView" : 3,
            "componentType" : 5123,
            "count" : 2112,
            "type" : "SCALAR"
        }
    ],
    "bufferViews" : [
        {
            "buffer" : 0,
            "byteLength" : 5124,
            "byteOffset" : 0
        },
        {
            "buffer" : 0,
            "byteLength" : 5124,
            "byteOffset" : 5124
        },
        {
            "buffer" : 0,
            "byteLength" : 3416,
            "byteOffset" : 10248
        },
        {
            "buffer" : 0,
            "byteLength" : 4224,
            "byteOffset" : 13664
        }
    ],
    "buffers" : [
        {
            "byteLength" : 17888,
            "uri" : "data:application/octet-stream;base64,"
        }
    ]
}
